# xmcd
#
# Track frame offsets:
#       150
#       17706
#       28314
#       44954
#       55842
#       67547
#       79127
#       89655
#       106919
#       117297
#       125283
#       133509
#
# Disc length: 2136 seconds
#
# Revision: 1
# Processed by: cddbd v1.5.2PL0 Copyright (c) Steve Scherf et al.
# Submitted via: FreeDbEdit v0.1
#
DISCID=a108560c
DTITLE=Various Artist - A Country Christmas
DYEAR=2005
DGENRE=Christmas
TTITLE0=Jeannie C. Riley - Joy to the World
TTITLE1=Kitty Wells - Away in a Manger
TTITLE2=Jack Greene - Oh, Come, All Ye Faithful
TTITLE3=Skeeter Davis - Rudolph, The Red-Nosed Reindeer
TTITLE4=Donna Fargo - Jingle Bells
TTITLE5=Gene Autry - Up on the Housetop
TTITLE6=Lacy J. Dalton - Winter Wonderland
TTITLE7=B.J. Thomas - The Christmas Song (Live)
TTITLE8=Eddy Raven - Slient Night
TTITLE9=Gene Autry - 32 Feet and 8 Little Tails
TTITLE10=The Original Blind Boys - Hark! The Herald Angels Sing
TTITLE11=B.J. Thomas - On This Holy, Holy Night
EXTD=
EXTT0=
EXTT1=
EXTT2=
EXTT3=
EXTT4=
EXTT5=
EXTT6=
EXTT7=
EXTT8=
EXTT9=
EXTT10=
EXTT11=
PLAYORDER=
